<?xml version="1.0" encoding="utf-8"?>
<!-- Generator: Adobe Illustrator 25.3.1, SVG Export Plug-In . SVG Version: 6.00 Build 0)  -->
<svg version="1.1" id="Layer_1" xmlns="http://www.w3.org/2000/svg" xmlns:xlink="http://www.w3.org/1999/xlink" x="0px" y="0px"
	 viewBox="0 0 2000 2000" style="enable-background:new 0 0 2000 2000;" xml:space="preserve">
<style type="text/css">
	.st0{fill:#FF004C;}
</style>
<path class="st0" d="M1225.1,1175.4c-90.5-103.3-90.5-247.6,0-350.9l457.9-523c37.7-43.1,46.6-101.9,23.1-153.6
	c-24.5-54.1-77.7-87.7-138.8-87.7l-440.4,0c-44.7,0-86.8,18.9-115.6,51.8L316.9,905.3c-48.1,54.9-48.1,134.6,0,189.5l694.6,793.1
	c28.8,32.9,71,51.8,115.6,51.8l440.4,0c61.1,0,114.2-33.6,138.8-87.7c23.4-51.7,14.6-110.5-23.2-153.6L1225.1,1175.4z M1123.3,1790
	l-691.8-789.9c0,0,693.4-791.1,695.5-791.1l439.5,0l-453.2,517.7c-138.7,158.4-138.7,388.3,0,546.7l453.3,517.6
	C1566.6,1791,1123.6,1790.3,1123.3,1790z"/>
</svg>
