<?xml version="1.0" encoding="utf-8"?>
<!-- Generator: Adobe Illustrator 25.3.1, SVG Export Plug-In . SVG Version: 6.00 Build 0)  -->
<svg version="1.1" id="Layer_1" xmlns="http://www.w3.org/2000/svg" xmlns:xlink="http://www.w3.org/1999/xlink" x="0px" y="0px"
	 viewBox="0 0 2000 2000" style="enable-background:new 0 0 2000 2000;" xml:space="preserve">
<style type="text/css">
	.st0{fill:#00C8FF;}
</style>
<g>
	<g>
		<path class="st0" d="M873,1939.6l-440.4,0c-61.1,0-114.2-33.6-138.8-87.7c-23.4-51.6-14.6-110.5,23.1-153.5L928.5,1000
			L316.9,301.6c-37.7-43.1-46.6-101.9-23.2-153.5c24.5-54.1,77.7-87.7,138.8-87.7l440.4,0c44.7,0,86.8,18.9,115.6,51.8l694.6,793.1
			c48.1,54.9,48.1,134.6,0,189.5l-694.5,793.2C959.8,1920.8,917.7,1939.6,873,1939.6z M433.5,1791l439.5,0c2,0,3.5-0.8,3.8-1.1
			l691.6-789.9L876.7,210.1c-0.3-0.3-1.8-1.1-3.8-1.1l-439.5,0l609.8,696.2c48.1,54.9,48.1,134.6,0,189.5L433.5,1791z"/>
	</g>
</g>
</svg>
